# xmcd
#
# Track frame offsets: 
#        150
#        17033
#        29223
#        41486
#        54864
#        70245
#        87975
#        98888
#        113968
#        128989
#        148506
#        164623
#        183151
#        197320
#        216895
#        229519
#        241906
#        264087
#
# Disc length: 3778 seconds
#
# Revision: 3
# Processed by: cddbd v1.5.2PL0 Copyright (c) Steve Scherf et al.
# Submitted via: ExactAudioCopyFreeDBPlugin 1.0
#
DISCID=f30ec012
DTITLE=Al Green - The Immortal Soul of Al Green [Hi Records box set]
DYEAR=2003
DGENRE=Soul
TTITLE0=Take Me to the River
TTITLE1=So Good to Be Here
TTITLE2=My God is Real
TTITLE3=Sha-La-La (Make Me Happy)
TTITLE4=The City
TTITLE5=God Blessed Our Love
TTITLE6=One Nite Stand
TTITLE7=I'm Hooked on You
TTITLE8=Mimi
TTITLE9=Love Ritual
TTITLE10=Rhymes
TTITLE11=Could I Be the One?
TTITLE12=L-O-V-E (Love)
TTITLE13=Strong as Death (Sweet as Love)
TTITLE14=Oh Me, Oh My (Dreams in My Arms)
TTITLE15=I Gotta Be More (Take Me Higher)
TTITLE16=Eli's Game
TTITLE17=Love Ritual (Remix)
EXTD=YEAR: 2003
EXTT0=
EXTT1=
EXTT2=
EXTT3=
EXTT4=
EXTT5=
EXTT6=
EXTT7=
EXTT8=
EXTT9=
EXTT10=
EXTT11=
EXTT12=
EXTT13=
EXTT14=
EXTT15=
EXTT16=
EXTT17=
PLAYORDER=
